<svg width="439" height="370" viewBox="0 0 439 370" fill="none" xmlns="http://www.w3.org/2000/svg">
    <g clip-path="url(#clip0_1031_1454)">
        <path
            d="M168.96 158.79C166.69 157.61 163.81 157.02 160.32 157.02H148.19V185.39H160.4C163.86 185.39 166.72 184.79 168.98 183.58C171.24 182.38 172.93 180.7 174.05 178.55C175.17 176.41 175.73 173.93 175.73 171.14C175.73 168.35 175.17 165.85 174.05 163.73C172.93 161.61 171.23 159.97 168.96 158.79Z"
            fill="#0a1830" />
        <path
            d="M159.5 0L0 91.3V276.6L159.5 369.7L319 276.6V91.3L159.5 0ZM113.04 227.38H97.51L60.51 173.85H59.89V227.38H41.91V142.33H57.69L94.4 195.82H95.15V142.33H113.05V227.38H113.04ZM190.59 186.1C188.15 190.42 184.63 193.78 180.02 196.19C175.41 198.6 169.84 199.8 163.3 199.8H148.18V227.38H130.2V142.33H163.76C170.21 142.33 175.71 143.55 180.25 146.01C184.79 148.46 188.26 151.85 190.65 156.18C193.04 160.51 194.24 165.5 194.24 171.15C194.24 176.8 193.02 181.78 190.59 186.1ZM260.42 227.38L242.98 198.35H242.32L224.88 227.38H204.28L230.9 184.85L204.78 142.32H225.17L242.32 171.31H242.98L260.21 142.32H280.52L254.56 184.85L281.1 227.38H260.42Z"
            fill="#0a1830" />
        <path
            d="M367.92 227.38C363.85 227.38 360.22 226.67 357.04 225.24C353.86 223.81 351.34 221.7 349.5 218.89C347.66 216.08 346.74 212.57 346.74 208.36C346.74 204.82 347.39 201.84 348.69 199.43C349.99 197.02 351.76 195.08 354.01 193.61C356.25 192.14 358.81 191.04 361.67 190.29C364.53 189.54 367.55 189.02 370.7 188.71C374.41 188.32 377.4 187.96 379.67 187.61C381.94 187.26 383.59 186.75 384.61 186.05C385.63 185.36 386.15 184.33 386.15 182.98V182.73C386.15 180.1 385.33 178.06 383.68 176.62C382.03 175.18 379.7 174.46 376.68 174.46C373.5 174.46 370.96 175.16 369.08 176.56C367.2 177.96 365.95 179.71 365.34 181.81L348.98 180.48C349.81 176.6 351.44 173.25 353.88 170.41C356.32 167.57 359.47 165.38 363.33 163.85C367.19 162.31 371.67 161.55 376.77 161.55C380.31 161.55 383.71 161.97 386.96 162.8C390.21 163.63 393.11 164.92 395.64 166.66C398.17 168.4 400.17 170.64 401.64 173.37C403.11 176.1 403.84 179.36 403.84 183.15V226.18H387.06V217.33H386.56C385.54 219.32 384.16 221.08 382.45 222.58C380.73 224.09 378.67 225.27 376.26 226.11C373.85 226.95 371.07 227.38 367.91 227.38H367.92ZM372.99 215.17C375.59 215.17 377.89 214.65 379.89 213.61C381.89 212.57 383.45 211.17 384.58 209.4C385.71 207.63 386.28 205.62 386.28 203.38V196.61C385.73 196.97 384.97 197.3 384.02 197.59C383.07 197.88 381.99 198.14 380.8 198.38C379.61 198.62 378.42 198.82 377.23 199C376.04 199.18 374.96 199.34 373.99 199.48C371.91 199.78 370.1 200.27 368.55 200.93C367 201.59 365.79 202.49 364.94 203.61C364.08 204.73 363.65 206.12 363.65 207.78C363.65 210.19 364.53 212.02 366.29 213.28C368.05 214.54 370.28 215.17 373 215.17H372.99Z"
            fill="#0a1830" />
        <path
            d="M428.81 154.16C426.18 154.16 423.93 153.28 422.06 151.52C420.19 149.76 419.26 147.65 419.26 145.19C419.26 142.73 420.19 140.66 422.06 138.9C423.93 137.14 426.18 136.26 428.81 136.26C431.44 136.26 433.69 137.14 435.56 138.9C437.43 140.66 438.36 142.76 438.36 145.19C438.36 147.62 437.43 149.77 435.56 151.52C433.69 153.28 431.44 154.16 428.81 154.16ZM419.92 226.17V162.38H437.61V226.17H419.92Z"
            fill="#0a1830" />
    </g>
    <defs>
        <clipPath id="clip0_1031_1454">
            <rect width="438.36" height="369.7" fill="#ffffff" />
        </clipPath>
    </defs>
</svg>
